# xmcd
#
# Track frame offsets: 
#        150
#        23190
#        42790
#        71072
#        84052
#        103187
#        115625
#        143440
#        165240
#
# Disc length: 2484 seconds
#
# Revision: 2
# Processed by: cddbd v1.5.2PL0 Copyright (c) Steve Scherf et al.
# Submitted via: ExactAudioCopy v0.99pb4
#
DISCID=6109b209
DTITLE=Lalo Schifrin - Towering Toccata
DYEAR=1977
DGENRE=Jazz
TTITLE0=Towering Toccata
TTITLE1=Frances' Theme
TTITLE2=Macumba
TTITLE3=Eagles In Love
TTITLE4=Theme From King Kong
TTITLE5=Most Wanted Theme
TTITLE6=Midnight Woman
TTITLE7=Roller Coaster
TTITLE8=Eagles In Love (Alternate Take)
EXTD=YEAR: 1977
EXTT0=
EXTT1=
EXTT2=
EXTT3=
EXTT4=
EXTT5=
EXTT6=
EXTT7=
EXTT8=
PLAYORDER=
